<mxfile host="app.diagrams.net" modified="2020-12-31T04:18:05.045Z" agent="5.0 (Windows NT 10.0; WOW64) AppleWebKit/537.36 (KHTML, like Gecko) coc_coc_browser/91.0.146 Chrome/85.0.4183.146 Safari/537.36" etag="AS1w43cVVuEBQE7b1_M7" version="14.1.4" type="github">
  <diagram id="4bKnEIDmTzF2Y5TguSWz" name="Page-1">
    <mxGraphModel dx="994" dy="573" grid="1" gridSize="10" guides="1" tooltips="1" connect="1" arrows="1" fold="1" page="1" pageScale="1" pageWidth="827" pageHeight="1169" math="0" shadow="0">
      <root>
        <mxCell id="0" />
        <mxCell id="1" parent="0" />
        <mxCell id="1HVBlO2OWe-2cKRQwrcg-1" value="" style="rounded=0;whiteSpace=wrap;html=1;" parent="1" vertex="1">
          <mxGeometry x="180" y="80" width="400" height="440" as="geometry" />
        </mxCell>
        <mxCell id="1HVBlO2OWe-2cKRQwrcg-2" value="Name" style="text;html=1;strokeColor=none;fillColor=none;align=center;verticalAlign=middle;whiteSpace=wrap;rounded=0;" parent="1" vertex="1">
          <mxGeometry x="360" y="90" width="40" height="20" as="geometry" />
        </mxCell>
        <mxCell id="1HVBlO2OWe-2cKRQwrcg-12" style="rounded=0;orthogonalLoop=1;jettySize=auto;html=1;endArrow=none;endFill=0;" parent="1" source="1HVBlO2OWe-2cKRQwrcg-3" target="1HVBlO2OWe-2cKRQwrcg-9" edge="1">
          <mxGeometry relative="1" as="geometry" />
        </mxCell>
        <mxCell id="1HVBlO2OWe-2cKRQwrcg-13" style="rounded=0;orthogonalLoop=1;jettySize=auto;html=1;entryX=0;entryY=0.5;entryDx=0;entryDy=0;endArrow=none;endFill=0;" parent="1" source="1HVBlO2OWe-2cKRQwrcg-3" target="1HVBlO2OWe-2cKRQwrcg-10" edge="1">
          <mxGeometry relative="1" as="geometry" />
        </mxCell>
        <mxCell id="1HVBlO2OWe-2cKRQwrcg-3" value="Unauthorized" style="shape=umlActor;verticalLabelPosition=bottom;labelBackgroundColor=#ffffff;verticalAlign=top;html=1;outlineConnect=0;" parent="1" vertex="1">
          <mxGeometry x="130" y="123.75" width="20" height="50" as="geometry" />
        </mxCell>
        <mxCell id="1HVBlO2OWe-2cKRQwrcg-18" style="rounded=0;orthogonalLoop=1;jettySize=auto;html=1;entryX=0.5;entryY=0;entryDx=0;entryDy=0;endArrow=open;endFill=0;dashed=1;" parent="1" source="1HVBlO2OWe-2cKRQwrcg-9" target="1HVBlO2OWe-2cKRQwrcg-16" edge="1">
          <mxGeometry relative="1" as="geometry" />
        </mxCell>
        <mxCell id="1HVBlO2OWe-2cKRQwrcg-19" value="&amp;lt;&amp;lt;extend&amp;gt;&amp;gt;" style="edgeLabel;html=1;align=center;verticalAlign=middle;resizable=0;points=[];" parent="1HVBlO2OWe-2cKRQwrcg-18" vertex="1" connectable="0">
          <mxGeometry x="-0.2285" y="1" relative="1" as="geometry">
            <mxPoint x="-1" y="14.869999999999997" as="offset" />
          </mxGeometry>
        </mxCell>
        <mxCell id="1HVBlO2OWe-2cKRQwrcg-9" value="Register" style="ellipse;whiteSpace=wrap;html=1;" parent="1" vertex="1">
          <mxGeometry x="270" y="130" width="60" height="37.5" as="geometry" />
        </mxCell>
        <mxCell id="1HVBlO2OWe-2cKRQwrcg-22" style="rounded=0;orthogonalLoop=1;jettySize=auto;html=1;endArrow=open;endFill=0;dashed=1;" parent="1" source="1HVBlO2OWe-2cKRQwrcg-10" target="1HVBlO2OWe-2cKRQwrcg-20" edge="1">
          <mxGeometry relative="1" as="geometry" />
        </mxCell>
        <mxCell id="1HVBlO2OWe-2cKRQwrcg-23" value="&amp;lt;&amp;lt;extend&amp;gt;&amp;gt;" style="edgeLabel;html=1;align=center;verticalAlign=middle;resizable=0;points=[];" parent="1HVBlO2OWe-2cKRQwrcg-22" vertex="1" connectable="0">
          <mxGeometry x="0.3593" y="1" relative="1" as="geometry">
            <mxPoint x="-1" y="-23.06" as="offset" />
          </mxGeometry>
        </mxCell>
        <mxCell id="1HVBlO2OWe-2cKRQwrcg-10" value="View Photograph" style="ellipse;whiteSpace=wrap;html=1;" parent="1" vertex="1">
          <mxGeometry x="350" y="173.75" width="80" height="50" as="geometry" />
        </mxCell>
        <mxCell id="1HVBlO2OWe-2cKRQwrcg-15" style="edgeStyle=orthogonalEdgeStyle;rounded=0;orthogonalLoop=1;jettySize=auto;html=1;endArrow=block;endFill=0;" parent="1" source="1HVBlO2OWe-2cKRQwrcg-14" edge="1">
          <mxGeometry relative="1" as="geometry">
            <mxPoint x="140.0000000000001" y="200" as="targetPoint" />
          </mxGeometry>
        </mxCell>
        <mxCell id="1HVBlO2OWe-2cKRQwrcg-17" style="rounded=0;orthogonalLoop=1;jettySize=auto;html=1;endArrow=none;endFill=0;" parent="1" source="1HVBlO2OWe-2cKRQwrcg-14" target="1HVBlO2OWe-2cKRQwrcg-16" edge="1">
          <mxGeometry relative="1" as="geometry" />
        </mxCell>
        <mxCell id="1HVBlO2OWe-2cKRQwrcg-21" style="rounded=0;orthogonalLoop=1;jettySize=auto;html=1;entryX=0;entryY=0.5;entryDx=0;entryDy=0;endArrow=none;endFill=0;" parent="1" source="1HVBlO2OWe-2cKRQwrcg-14" target="1HVBlO2OWe-2cKRQwrcg-20" edge="1">
          <mxGeometry relative="1" as="geometry" />
        </mxCell>
        <mxCell id="1HVBlO2OWe-2cKRQwrcg-14" value="Customer" style="shape=umlActor;verticalLabelPosition=bottom;labelBackgroundColor=#ffffff;verticalAlign=top;html=1;outlineConnect=0;" parent="1" vertex="1">
          <mxGeometry x="130" y="270" width="20" height="50" as="geometry" />
        </mxCell>
        <mxCell id="1HVBlO2OWe-2cKRQwrcg-16" value="Login" style="ellipse;whiteSpace=wrap;html=1;" parent="1" vertex="1">
          <mxGeometry x="230" y="240" width="60" height="40" as="geometry" />
        </mxCell>
        <mxCell id="1HVBlO2OWe-2cKRQwrcg-20" value="Buy Photo" style="ellipse;whiteSpace=wrap;html=1;" parent="1" vertex="1">
          <mxGeometry x="290" y="300" width="80" height="50" as="geometry" />
        </mxCell>
        <mxCell id="1HVBlO2OWe-2cKRQwrcg-33" style="edgeStyle=orthogonalEdgeStyle;rounded=0;orthogonalLoop=1;jettySize=auto;html=1;entryX=0;entryY=0.3333333333333333;entryDx=0;entryDy=0;entryPerimeter=0;endArrow=block;endFill=0;" parent="1" source="1HVBlO2OWe-2cKRQwrcg-30" target="1HVBlO2OWe-2cKRQwrcg-3" edge="1">
          <mxGeometry relative="1" as="geometry">
            <Array as="points">
              <mxPoint x="100" y="425" />
              <mxPoint x="100" y="140" />
            </Array>
          </mxGeometry>
        </mxCell>
        <mxCell id="1HVBlO2OWe-2cKRQwrcg-34" style="rounded=0;orthogonalLoop=1;jettySize=auto;html=1;endArrow=none;endFill=0;" parent="1" source="1HVBlO2OWe-2cKRQwrcg-30" target="1HVBlO2OWe-2cKRQwrcg-16" edge="1">
          <mxGeometry relative="1" as="geometry" />
        </mxCell>
        <mxCell id="1HVBlO2OWe-2cKRQwrcg-36" style="rounded=0;orthogonalLoop=1;jettySize=auto;html=1;entryX=0;entryY=0.5;entryDx=0;entryDy=0;endArrow=none;endFill=0;" parent="1" source="1HVBlO2OWe-2cKRQwrcg-30" target="1HVBlO2OWe-2cKRQwrcg-35" edge="1">
          <mxGeometry relative="1" as="geometry" />
        </mxCell>
        <mxCell id="1HVBlO2OWe-2cKRQwrcg-38" style="rounded=0;orthogonalLoop=1;jettySize=auto;html=1;entryX=0;entryY=0.5;entryDx=0;entryDy=0;endArrow=none;endFill=0;" parent="1" source="1HVBlO2OWe-2cKRQwrcg-30" target="1HVBlO2OWe-2cKRQwrcg-37" edge="1">
          <mxGeometry relative="1" as="geometry" />
        </mxCell>
        <mxCell id="1HVBlO2OWe-2cKRQwrcg-30" value="Photographer" style="shape=umlActor;verticalLabelPosition=bottom;labelBackgroundColor=#ffffff;verticalAlign=top;html=1;outlineConnect=0;" parent="1" vertex="1">
          <mxGeometry x="130" y="400" width="20" height="50" as="geometry" />
        </mxCell>
        <mxCell id="1HVBlO2OWe-2cKRQwrcg-35" value="Upload Photo" style="ellipse;whiteSpace=wrap;html=1;" parent="1" vertex="1">
          <mxGeometry x="270" y="370" width="90" height="50" as="geometry" />
        </mxCell>
        <mxCell id="1HVBlO2OWe-2cKRQwrcg-37" value="Edit Photo Info" style="ellipse;whiteSpace=wrap;html=1;" parent="1" vertex="1">
          <mxGeometry x="250" y="440" width="90" height="55" as="geometry" />
        </mxCell>
        <mxCell id="1HVBlO2OWe-2cKRQwrcg-43" style="edgeStyle=none;rounded=0;orthogonalLoop=1;jettySize=auto;html=1;entryX=1;entryY=0.5;entryDx=0;entryDy=0;endArrow=none;endFill=0;" parent="1" source="1HVBlO2OWe-2cKRQwrcg-39" target="1HVBlO2OWe-2cKRQwrcg-40" edge="1">
          <mxGeometry relative="1" as="geometry" />
        </mxCell>
        <mxCell id="1HVBlO2OWe-2cKRQwrcg-44" style="edgeStyle=none;rounded=0;orthogonalLoop=1;jettySize=auto;html=1;entryX=1;entryY=0.5;entryDx=0;entryDy=0;endArrow=none;endFill=0;" parent="1" source="1HVBlO2OWe-2cKRQwrcg-39" target="1HVBlO2OWe-2cKRQwrcg-42" edge="1">
          <mxGeometry relative="1" as="geometry" />
        </mxCell>
        <mxCell id="1HVBlO2OWe-2cKRQwrcg-39" value="System" style="shape=umlActor;verticalLabelPosition=bottom;labelBackgroundColor=#ffffff;verticalAlign=top;html=1;outlineConnect=0;" parent="1" vertex="1">
          <mxGeometry x="620" y="270" width="20" height="50" as="geometry" />
        </mxCell>
        <mxCell id="1HVBlO2OWe-2cKRQwrcg-40" value="Tracking transaction" style="ellipse;whiteSpace=wrap;html=1;" parent="1" vertex="1">
          <mxGeometry x="450" y="240" width="80" height="55" as="geometry" />
        </mxCell>
        <mxCell id="1HVBlO2OWe-2cKRQwrcg-42" value="Manage Account" style="ellipse;whiteSpace=wrap;html=1;" parent="1" vertex="1">
          <mxGeometry x="450" y="350" width="80" height="50" as="geometry" />
        </mxCell>
        <mxCell id="hGGUQ784dFyq1AoJTGSS-1" value="Actor" style="shape=umlActor;verticalLabelPosition=bottom;verticalAlign=top;html=1;outlineConnect=0;" vertex="1" parent="1">
          <mxGeometry x="615" y="130" width="30" height="60" as="geometry" />
        </mxCell>
      </root>
    </mxGraphModel>
  </diagram>
</mxfile>
